<svg id="Warstwa_1" data-name="Warstwa 1" xmlns="http://www.w3.org/2000/svg" viewBox="0 0 433.82 112.53"><path d="M157.39,84.53a24.34,24.34,0,0,1-11.71-2.75,20,20,0,0,1-8-7.82,23.8,23.8,0,0,1-2.92-12.1,24.36,24.36,0,0,1,2.81-12,19.62,19.62,0,0,1,8-7.86,25.11,25.11,0,0,1,12.1-2.78A27.06,27.06,0,0,1,165,40a24.44,24.44,0,0,1,4.69,1.8l-2.15,7a21.33,21.33,0,0,0-4-1.64,17.37,17.37,0,0,0-4.94-.66,15.43,15.43,0,0,0-6.88,1.53,11.46,11.46,0,0,0-5,4.87,18,18,0,0,0-1.87,8.83,18.48,18.48,0,0,0,1.8,8.68,11.65,11.65,0,0,0,4.9,5,14.61,14.61,0,0,0,6.92,1.64,22.3,22.3,0,0,0,5.39-.56,16.5,16.5,0,0,0,3.86-1.46l1.87,7a20.44,20.44,0,0,1-4.69,1.67A31,31,0,0,1,157.39,84.53Z" transform="translate(-15.11 -7.77)"/><path d="M173.1,83.83V78l15.43-20.71H174V50.6h25v5.63l-15.5,20.93h15.85v6.67Z" transform="translate(-15.11 -7.77)"/><path d="M209.25,102.11l-3.83-7.22A17.18,17.18,0,0,0,212,90.82a14.55,14.55,0,0,0,3.68-6.29l.28-.91-14-33H212l5.84,15.85,2.29,8.07h.21l2.15-8.21,5.22-15.71h9.38L225,84.94a41.22,41.22,0,0,1-3.24,7.16,21.44,21.44,0,0,1-12.47,10Z" transform="translate(-15.11 -7.77)"/><path d="M242.4,83.83V40h15.3a28.22,28.22,0,0,1,11.85,2.33,17.69,17.69,0,0,1,8,7A21.91,21.91,0,0,1,280.36,61a25.42,25.42,0,0,1-1.91,10.26,18.86,18.86,0,0,1-5.32,7.12,23,23,0,0,1-7.85,4.14,32.72,32.72,0,0,1-9.53,1.35Zm9.53-7.37h3.2a20.06,20.06,0,0,0,7.4-1.35,11.68,11.68,0,0,0,5.6-4.73Q270.27,67,270.28,61q0-6.6-3.75-10.08t-10.08-3.47h-4.52Z" transform="translate(-15.11 -7.77)"/><path d="M302.33,84.53a18.43,18.43,0,0,1-8.62-2,14.8,14.8,0,0,1-6-5.77,17.71,17.71,0,0,1-2.23-9.14,18.85,18.85,0,0,1,2.3-9.6,15.56,15.56,0,0,1,6.18-6,18.14,18.14,0,0,1,8.69-2.08,18.66,18.66,0,0,1,8.66,2,14.53,14.53,0,0,1,6,5.73,18.23,18.23,0,0,1,2.23,9.35,18.37,18.37,0,0,1-2.3,9.42,16,16,0,0,1-6.15,6A17.84,17.84,0,0,1,302.33,84.53Zm.21-6.82a7,7,0,0,0,3.61-1,7.16,7.16,0,0,0,2.75-3.27A14.85,14.85,0,0,0,310,67.29a14.7,14.7,0,0,0-1.07-6.12,7.64,7.64,0,0,0-2.82-3.37,6.87,6.87,0,0,0-3.68-1.08,7.23,7.23,0,0,0-3.58.94A6.77,6.77,0,0,0,296,60.89a15.35,15.35,0,0,0-1.08,6.4q0,5.42,2.29,7.92A7,7,0,0,0,302.54,77.71Z" transform="translate(-15.11 -7.77)"/><path d="M322.83,101.56l-4-6.33a18.45,18.45,0,0,0,4.42-3,10,10,0,0,0,2.53-4.55,30.13,30.13,0,0,0,.84-8V50.6h9.24V79.11a36.77,36.77,0,0,1-1.14,9.48,19,19,0,0,1-4,7.55A21,21,0,0,1,322.83,101.56Zm8.48-58a4.92,4.92,0,0,1-3.71-1.39,4.82,4.82,0,0,1,0-6.71,5,5,0,0,1,3.71-1.35A4.94,4.94,0,0,1,335,35.48a4.58,4.58,0,0,1,1.36,3.38A4.65,4.65,0,0,1,335,42.23,4.92,4.92,0,0,1,331.31,43.58Z" transform="translate(-15.11 -7.77)"/><path d="M354.25,84.53c-3.57,0-6.32-1-8.27-2.92a9.86,9.86,0,0,1-2.92-7.23,9.06,9.06,0,0,1,2.12-6.22,12.25,12.25,0,0,1,5.7-3.51,27.1,27.1,0,0,1,8-1.12h4.17V61.45a3.89,3.89,0,0,0-1.46-3.37,6.65,6.65,0,0,0-4-1.08,14.65,14.65,0,0,0-4.07.62,23.3,23.3,0,0,0-4.69,2.09l-3.2-6.19A28.72,28.72,0,0,1,352,50.88a25.61,25.61,0,0,1,7.09-1q6,0,9.66,2.88t3.69,9.49V83.83h-7.16l-.91-3.4h-.2a10.79,10.79,0,0,1-4.11,3A14.42,14.42,0,0,1,354.25,84.53Zm3-6.61a6.42,6.42,0,0,0,3.44-1,7,7,0,0,0,2.47-2.47V69.23l-3,.07c-2.82.1-4.79.57-5.91,1.43a3.81,3.81,0,0,0-1.66,3.09A3.46,3.46,0,0,0,354,77.05,6.08,6.08,0,0,0,357.24,77.92Z" transform="translate(-15.11 -7.77)"/><path d="M393.25,84.53a14.17,14.17,0,0,1-7.47-2,14.37,14.37,0,0,1-5.35-6,20.31,20.31,0,0,1-2-9.31q0-7.86,4-12.58t11.33-4.73a14.39,14.39,0,0,1,4.48.69,8.71,8.71,0,0,1,3.3,1.81V34.2h9.25V83.83h-6.6l-1-3.61H403a11.69,11.69,0,0,1-9.73,4.31Zm2.3-6.82a6.46,6.46,0,0,0,3.75-1,6.88,6.88,0,0,0,2.29-2.5V59.36a8,8,0,0,0-2.32-1.91,6.54,6.54,0,0,0-3.24-.8,8.6,8.6,0,0,0-4.06,1,7.16,7.16,0,0,0-3.06,3.3A13.53,13.53,0,0,0,387.76,67q0,5.49,2.26,8.1A7,7,0,0,0,395.55,77.71Z" transform="translate(-15.11 -7.77)"/><path d="M435.73,84.53a22.84,22.84,0,0,1-9.08-1.77A15,15,0,0,1,420,77.23a17.17,17.17,0,0,1-2.5-9.66,19.57,19.57,0,0,1,2.09-9.25,15.35,15.35,0,0,1,5.84-6.19,16.74,16.74,0,0,1,8.69-2.22q6.74,0,10.77,4.1t4,11.54v4.1h-22v.28a6.61,6.61,0,0,0,2.78,5.87,12.18,12.18,0,0,0,7.09,1.91,20.9,20.9,0,0,0,4.93-.52,17.88,17.88,0,0,0,3.83-1.35l1.74,6.46a24.34,24.34,0,0,1-4.8,1.57A30.21,30.21,0,0,1,435.73,84.53Zm-8.62-21.14,12.37-.13a8.64,8.64,0,0,0-1.32-4.73,4.79,4.79,0,0,0-4.38-2.09,6,6,0,0,0-4.52,1.88A8.38,8.38,0,0,0,427.11,63.39Z" transform="translate(-15.11 -7.77)"/><path d="M116.86,45.72c.18-6.4-2.31-11.1-8.07-14.38-12.61-7.16-25-14.66-37.54-22a9.87,9.87,0,0,0-11,.16C48.08,17,35.87,24.45,23.45,31.53c-5.75,3.27-8.38,7.77-8.34,14.21.1,13.14.11,26.29.16,39.43a12.26,12.26,0,0,0,6.51,11c11.76,6.9,39.59,22.64,41.9,23.59a7.48,7.48,0,0,0,6.95-.87c12.44-7.64,25.22-14.72,37.9-21.93a15,15,0,0,0,8.18-13.81C116.79,77.05,116.83,46.79,116.86,45.72ZM97.58,77.91a5.48,5.48,0,0,1-2.83,5C85.37,88.48,76,94.09,66.64,99.63c-3.53,2.09-10.81-2.58-11.83-3.14-6.56-3.62-13-7.46-19.57-11.06-4.37-2.39-6.79-5.36-6.49-10.87a149.35,149.35,0,0,0-.23-22.18,2.81,2.81,0,0,1,.05-1.16c1.64-4.08,5.93-4.67,9.09-6.7,1.76-1.13,3.05.62,4.54,1.57C46,48.48,50,50.45,53.9,52.6q7.26,4,14.52,8.06a4.76,4.76,0,0,1,.49,8.19c-.93.7-3.1,2.06-4.06,2.71-1.15.78-5.39-1.65-8.82-3.69-4.52-2.69-9.13-5.22-13.65-7.9-2-1.2-2.77-.54-3,1.58a110,110,0,0,0-.26,12.84c0,1.6,1.18,2.33,2.39,3,4.37,2.55,8.72,5.12,13.08,7.67,5.13,3,5.73,3.34,6.52,3.9,2.26,1.6,4.15.33,5.94-.69,5.67-3.23,11.23-6.64,16.87-9.92A5.72,5.72,0,0,0,87,72.93c0-5.84.11-11.67.26-17.51a3.16,3.16,0,0,0-1.93-3.19C78.16,48.16,71,44,63.89,39.81c-2.9-1.7-4.33-6.43-3-9.45.88-2,3.44-2.63,5.78-1.32,4.67,2.61,9.34,5.25,13.9,8,4.9,3,10,5.59,14.69,9a5,5,0,0,1,2.13,4.22C97.66,59.49,97.92,68.69,97.58,77.91Z" transform="translate(-15.11 -7.77)"/></svg>